<svg fill="none" height="26" width="26" xmlns="http://www.w3.org/2000/svg"><path d="M21.1 25H5c-1.7 0-3.1-1.4-3.1-3.1V13c0-1.7 1.4-3.1 3.1-3.1h16.1c1.7 0 3.1 1.4 3.1 3.1v8.9c0 1.7-1.4 3.1-3.1 3.1zM16.6 9.8H9.3c-.6 0-1.2-.5-1.2-1.2V5.5c0-2.5 2-4.5 4.5-4.5h.6c2.5 0 4.5 2 4.5 4.5v3.1c.1.7-.4 1.2-1.1 1.2z" stroke="#4F4F4F" stroke-linecap="round" stroke-miterlimit="10" stroke-width="2"/><path d="M13 21c-.9 0-1.6-.7-1.6-1.6v-4c0-.9.7-1.6 1.6-1.6.9 0 1.6.7 1.6 1.6v4c0 .9-.7 1.6-1.6 1.6z" fill="#4F4F4F"/></svg>