<svg xmlns="http://www.w3.org/2000/svg" width="100" viewBox="0 0 75 75" height="100" version="1.0"><path d="M10.284 36.328l-1.297-.313c-.523-.125-.883-.312-1.078-.562-.188-.258-.281-.625-.281-1.094 0-.75.195-1.3.593-1.656.395-.352 1.008-.532 1.844-.532.344 0 .645.016.906.047.27.024.52.07.75.14v1.438a10.979 10.979 0 00-1.078-.156 6.09 6.09 0 00-.61-.031c-.292 0-.507.055-.64.156-.125.094-.187.258-.187.485 0 .105.02.187.062.25.04.054.117.093.235.125l1.234.296c.363.075.625.153.781.235.156.086.281.183.375.297.114.136.196.308.25.515.051.2.078.45.078.75 0 .75-.203 1.293-.609 1.625-.398.336-1.012.5-1.844.5-.43 0-.836-.027-1.219-.078-.386-.05-.683-.117-.89-.203v-1.5c.27.086.594.152.969.203.382.055.765.078 1.14.078.301 0 .508-.035.625-.11.114-.07.172-.222.172-.452a.615.615 0 00-.062-.313c-.032-.07-.106-.117-.22-.14zm6.827-4.048h1.64l-2.25 4.11v2.344h-1.593V36.39l-2.313-4.11h1.813l1.297 2.688zm4.815 4.048l-1.297-.313c-.524-.125-.883-.312-1.078-.562-.188-.258-.282-.625-.282-1.094 0-.75.196-1.3.594-1.656.395-.352 1.008-.532 1.844-.532.344 0 .644.016.906.047.27.024.52.07.75.14v1.438a10.979 10.979 0 00-1.078-.156c-.2-.02-.402-.031-.61-.031-.292 0-.507.055-.64.156-.125.094-.187.258-.187.485 0 .105.02.187.062.25.04.054.117.093.234.125l1.235.296c.363.075.625.153.781.235.156.086.281.183.375.297.113.136.195.308.25.515.05.2.078.45.078.75 0 .75-.203 1.293-.61 1.625-.398.336-1.01.5-1.843.5-.43 0-.836-.027-1.219-.078-.386-.05-.683-.117-.89-.203v-1.5c.27.086.593.152.968.203.383.055.766.078 1.141.078.3 0 .508-.035.625-.11.113-.07.172-.222.172-.452a.615.615 0 00-.063-.313c-.03-.07-.105-.117-.218-.14zm7.561-4.048v1.438h-1.75v5.016h-1.594v-5.016h-1.765v-1.437zm5.298 4.954v1.5h-4.438V32.28h4.344v1.437h-2.75v1.078h2.375v1.329H31.94v1.109zm7.445-4.954v6.454h-1.485v-3.875l-1.11 2.64H38.34l-1.078-2.64v3.875h-1.485V32.28h1.938l1.312 3.25 1.344-3.25zm7.718 0v1.438h-1.75v5.016h-1.594v-5.016H44.84v-1.437zm5.297 4.954v1.5h-4.437V32.28h4.344v1.437h-2.75v1.078h2.375v1.329h-2.375v1.109zm3.789.109c.27 0 .567-.023.89-.078.321-.062.614-.14.876-.234v1.406a6.84 6.84 0 01-1.031.313 4.654 4.654 0 01-.938.093c-.605 0-1.086-.07-1.437-.203a1.925 1.925 0 01-.86-.672c-.18-.258-.308-.593-.39-1-.086-.406-.125-.894-.125-1.468 0-1.157.242-2 .734-2.532.5-.531 1.289-.797 2.375-.797.32 0 .601.012.844.032.25.011.472.03.672.062v1.39c-.22-.007-.454-.019-.704-.03a24.559 24.559 0 00-.812-.016c-.375 0-.656.039-.844.11a.72.72 0 00-.39.374 1.698 1.698 0 00-.188.563c-.031.219-.047.5-.047.844 0 .324.016.593.047.812.031.219.082.398.156.531.082.188.207.32.375.39.176.075.442.11.797.11zm4.257 1.391h-1.593V32.28h1.593v2.453h2.266V32.28h1.594v6.453h-1.594v-2.547h-2.266zm-49.095 5.884c-.168 0-.309-.023-.422-.062a1.016 1.016 0 01-.297-.156.756.756 0 01-.172-.235.885.885 0 01-.046-.281h.312c0 .086.023.164.078.234a.48.48 0 00.203.172.82.82 0 00.344.063c.195 0 .348-.035.453-.11a.36.36 0 00.172-.328.273.273 0 00-.094-.218.483.483 0 00-.218-.141 1.26 1.26 0 00-.313-.063c-.074-.02-.152-.039-.234-.062a1.854 1.854 0 01-.25-.078 1.12 1.12 0 01-.203-.11.694.694 0 01-.141-.187.62.62 0 01-.047-.25.6.6 0 01.047-.234.528.528 0 01.156-.22.69.69 0 01.266-.14c.101-.039.234-.062.39-.062.188 0 .344.03.47.093a.601.601 0 01.28.235c.07.105.11.219.11.344h-.313a.392.392 0 00-.062-.204.387.387 0 00-.188-.14.861.861 0 00-.297-.047 1.01 1.01 0 00-.265.031.42.42 0 00-.172.094.273.273 0 00-.094.125.476.476 0 00-.015.125c0 .086.023.156.078.219.05.054.125.093.218.125.102.03.223.058.36.078a2.073 2.073 0 01.469.125.68.68 0 01.187.125.539.539 0 01.188.437.648.648 0 01-.454.625 1.372 1.372 0 01-.484.078zm4.161-.046H16.78v-2.36h1.563v.281h-1.266v.735h1.11v.265h-1.11v.797h1.281zm1.955 0h-.297v-2.36h1a.99.99 0 01.312.047.674.674 0 01.25.156.54.54 0 01.157.235.706.706 0 01.062.297.796.796 0 01-.062.312.61.61 0 01-.188.234.752.752 0 01-.266.141l.563.938h-.344l-.531-.891h-.656zm0-2.094v.937h.687a.634.634 0 00.25-.047.454.454 0 00.172-.171.5.5 0 000-.484.517.517 0 00-.172-.173.527.527 0 00-.25-.062zm4.175 2.094h-.282l-1.015-2.36h.328l.828 1.969v-.016l.813-1.953h.328zm2.866 0h-.297v-2.36h.297zm2.903.046a1.298 1.298 0 01-.734-.234.955.955 0 01-.265-.266 1.182 1.182 0 01-.172-.343 1.186 1.186 0 01-.063-.391 1.203 1.203 0 01.5-.984 1.14 1.14 0 01.734-.25c.125 0 .243.023.36.062a.913.913 0 01.328.156c.102.075.191.164.266.266.07.106.125.23.156.375h-.313a.835.835 0 00-.453-.5.875.875 0 00-.719 0 .74.74 0 00-.28.203.979.979 0 00-.204.297 1.08 1.08 0 00-.062.375c0 .148.02.277.062.39.05.118.117.216.203.298a.958.958 0 00.281.203c.114.043.235.062.36.062a.95.95 0 00.36-.062.662.662 0 00.265-.188.972.972 0 00.187-.328h.313a1.204 1.204 0 01-.156.39 1.073 1.073 0 01-.594.423 1.374 1.374 0 01-.36.046zm4.356-.046h-1.578v-2.36h1.563v.281H33.33v.735h1.11v.265h-1.11v.797h1.281zm5.756 0h-.375l-.234-.25a1.168 1.168 0 01-.36.218 1.04 1.04 0 01-.39.078 1.11 1.11 0 01-.329-.046.715.715 0 01-.25-.141.62.62 0 01-.171-.219.634.634 0 01-.016-.516.539.539 0 01.14-.187 2.93 2.93 0 01.188-.14c.07-.051.14-.098.203-.141a.953.953 0 01-.14-.125 1.553 1.553 0 01-.11-.188.538.538 0 01.031-.5.49.49 0 01.22-.187.71.71 0 01.343-.078c.125 0 .227.023.312.062a.513.513 0 01.22.188c.05.074.077.168.077.28a.435.435 0 01-.047.204.477.477 0 01-.109.172 1.943 1.943 0 01-.36.234l.579.64a.721.721 0 00.14-.233c.032-.082.055-.172.079-.266h.265a1.15 1.15 0 01-.094.375 1.583 1.583 0 01-.203.328c.063.074.125.148.188.219.07.074.14.148.203.219zm-1.36-1.454c.04-.02.083-.039.126-.062.05-.031.097-.063.14-.094a.325.325 0 00.156-.281.257.257 0 00-.093-.203.305.305 0 00-.219-.078.351.351 0 00-.313.172.32.32 0 00-.03.156c0 .043.007.09.03.14.032.055.063.102.094.141.04.043.078.078.11.11zm-.015 1.235a.74.74 0 00.312-.063.956.956 0 00.282-.172 25.48 25.48 0 00-.328-.343c-.106-.125-.211-.243-.313-.36a5.507 5.507 0 00-.156.094.756.756 0 00-.25.25.335.335 0 00-.047.172c0 .086.02.164.062.234.051.063.114.11.188.14a.62.62 0 00.25.048zm5.469.219h-.296v-2.36h1a.99.99 0 01.312.047.674.674 0 01.25.156.54.54 0 01.156.235.69.69 0 01.063.297.796.796 0 01-.063.312.61.61 0 01-.187.234.752.752 0 01-.266.141l.563.938h-.344l-.531-.891h-.657zm0-2.094v.937h.688a.634.634 0 00.25-.047.454.454 0 00.172-.171.5.5 0 000-.484.517.517 0 00-.172-.173.527.527 0 00-.25-.062zm4.754 2.094h-1.578v-2.36H49.2v.281h-1.266v.735h1.11v.265h-1.11v.797h1.282zm1.954 0h-.297v-2.36h.969a.81.81 0 01.313.063.674.674 0 01.25.156.54.54 0 01.156.234c.039.094.062.2.062.313a.908.908 0 01-.062.328.645.645 0 01-.156.25.964.964 0 01-.25.156.99.99 0 01-.313.047h-.672zm0-2.094v1h.656c.094 0 .176-.02.25-.063a.454.454 0 00.172-.172.617.617 0 00.063-.265.629.629 0 00-.031-.188.367.367 0 00-.11-.156.367.367 0 00-.156-.11.371.371 0 00-.188-.046zm5.054 2.094h-.328l-.235-.532h-1.187l-.235.532h-.328l1.016-2.36h.281zm-1.172-1.938l-.469 1.14h.969l-.469-1.14-.016-.031zm3.012 1.938h-.297v-2.36h.297zm2.153 0h-.297v-2.36h1a.99.99 0 01.313.047.674.674 0 01.25.156.54.54 0 01.156.235.69.69 0 01.063.297.796.796 0 01-.063.312.61.61 0 01-.187.234.752.752 0 01-.266.141l.563.938h-.344l-.531-.891h-.657zm0-2.094v.937h.688a.634.634 0 00.25-.047.454.454 0 00.172-.171.5.5 0 000-.484.517.517 0 00-.172-.173.527.527 0 00-.25-.062zm0 0"/></svg>