<svg xmlns="http://www.w3.org/2000/svg" xmlns:xlink="http://www.w3.org/1999/xlink" width="500" zoomAndPan="magnify" viewBox="0 0 375 74.999997" height="100" preserveAspectRatio="xMidYMid meet" version="1.0"><defs><g/></defs><g fill="#000000" fill-opacity="1"><g transform="translate(35.148111, 38.308183)"><g><path d="M 14.890625 -12.171875 L 8.28125 -13.734375 C 5.632812 -14.359375 3.832031 -15.3125 2.875 -16.59375 C 1.925781 -17.882812 1.453125 -19.726562 1.453125 -22.125 C 1.453125 -25.90625 2.445312 -28.6875 4.4375 -30.46875 C 6.4375 -32.257812 9.535156 -33.15625 13.734375 -33.15625 C 15.472656 -33.15625 17.019531 -33.082031 18.375 -32.9375 C 19.726562 -32.800781 20.976562 -32.5625 22.125 -32.21875 L 22.125 -24.984375 C 19.488281 -25.429688 17.675781 -25.691406 16.6875 -25.765625 C 15.695312 -25.835938 14.660156 -25.875 13.578125 -25.875 C 12.117188 -25.875 11.0625 -25.628906 10.40625 -25.140625 C 9.75 -24.648438 9.421875 -23.832031 9.421875 -22.6875 C 9.421875 -22.132812 9.523438 -21.707031 9.734375 -21.40625 C 9.941406 -21.113281 10.34375 -20.898438 10.9375 -20.765625 L 17.171875 -19.3125 C 18.972656 -18.894531 20.273438 -18.484375 21.078125 -18.078125 C 21.878906 -17.679688 22.519531 -17.171875 23 -16.546875 C 23.5625 -15.890625 23.972656 -15.039062 24.234375 -14 C 24.492188 -12.957031 24.625 -11.691406 24.625 -10.203125 C 24.625 -6.421875 23.613281 -3.6875 21.59375 -2 C 19.582031 -0.320312 16.460938 0.515625 12.234375 0.515625 C 10.078125 0.515625 8.023438 0.382812 6.078125 0.125 C 4.140625 -0.132812 2.632812 -0.453125 1.5625 -0.828125 L 1.5625 -8.484375 C 2.945312 -8.035156 4.59375 -7.679688 6.5 -7.421875 C 8.414062 -7.160156 10.328125 -7.03125 12.234375 -7.03125 C 13.753906 -7.03125 14.8125 -7.21875 15.40625 -7.59375 C 16 -7.976562 16.296875 -8.742188 16.296875 -9.890625 C 16.296875 -10.617188 16.195312 -11.144531 16 -11.46875 C 15.8125 -11.800781 15.441406 -12.035156 14.890625 -12.171875 Z M 14.890625 -12.171875 "/></g></g></g><g fill="#000000" fill-opacity="1"><g transform="translate(61.747559, 38.308183)"><g><path d="M 22.75 -32.640625 L 31.078125 -32.640625 L 19.671875 -11.859375 L 19.671875 0 L 11.609375 0 L 11.609375 -11.859375 L -0.109375 -32.640625 L 9.109375 -32.640625 L 15.671875 -19 Z M 22.75 -32.640625 "/></g></g></g><g fill="#000000" fill-opacity="1"><g transform="translate(93.968777, 38.308183)"><g><path d="M 14.890625 -12.171875 L 8.28125 -13.734375 C 5.632812 -14.359375 3.832031 -15.3125 2.875 -16.59375 C 1.925781 -17.882812 1.453125 -19.726562 1.453125 -22.125 C 1.453125 -25.90625 2.445312 -28.6875 4.4375 -30.46875 C 6.4375 -32.257812 9.535156 -33.15625 13.734375 -33.15625 C 15.472656 -33.15625 17.019531 -33.082031 18.375 -32.9375 C 19.726562 -32.800781 20.976562 -32.5625 22.125 -32.21875 L 22.125 -24.984375 C 19.488281 -25.429688 17.675781 -25.691406 16.6875 -25.765625 C 15.695312 -25.835938 14.660156 -25.875 13.578125 -25.875 C 12.117188 -25.875 11.0625 -25.628906 10.40625 -25.140625 C 9.75 -24.648438 9.421875 -23.832031 9.421875 -22.6875 C 9.421875 -22.132812 9.523438 -21.707031 9.734375 -21.40625 C 9.941406 -21.113281 10.34375 -20.898438 10.9375 -20.765625 L 17.171875 -19.3125 C 18.972656 -18.894531 20.273438 -18.484375 21.078125 -18.078125 C 21.878906 -17.679688 22.519531 -17.171875 23 -16.546875 C 23.5625 -15.890625 23.972656 -15.039062 24.234375 -14 C 24.492188 -12.957031 24.625 -11.691406 24.625 -10.203125 C 24.625 -6.421875 23.613281 -3.6875 21.59375 -2 C 19.582031 -0.320312 16.460938 0.515625 12.234375 0.515625 C 10.078125 0.515625 8.023438 0.382812 6.078125 0.125 C 4.140625 -0.132812 2.632812 -0.453125 1.5625 -0.828125 L 1.5625 -8.484375 C 2.945312 -8.035156 4.59375 -7.679688 6.5 -7.421875 C 8.414062 -7.160156 10.328125 -7.03125 12.234375 -7.03125 C 13.753906 -7.03125 14.8125 -7.21875 15.40625 -7.59375 C 16 -7.976562 16.296875 -8.742188 16.296875 -9.890625 C 16.296875 -10.617188 16.195312 -11.144531 16 -11.46875 C 15.8125 -11.800781 15.441406 -12.035156 14.890625 -12.171875 Z M 14.890625 -12.171875 "/></g></g></g><g fill="#000000" fill-opacity="1"><g transform="translate(120.568224, 38.308183)"><g><path d="M 26.484375 -32.640625 L 26.484375 -25.34375 L 17.59375 -25.34375 L 17.59375 0 L 9.53125 0 L 9.53125 -25.34375 L 0.625 -25.34375 L 0.625 -32.640625 Z M 26.484375 -32.640625 "/></g></g></g><g fill="#000000" fill-opacity="1"><g transform="translate(148.833381, 38.308183)"><g><path d="M 24.984375 -7.546875 L 24.984375 0 L 2.5 0 L 2.5 -32.640625 L 24.515625 -32.640625 L 24.515625 -25.34375 L 10.5625 -25.34375 L 10.5625 -19.9375 L 22.59375 -19.9375 L 22.59375 -13.171875 L 10.5625 -13.171875 L 10.5625 -7.546875 Z M 24.984375 -7.546875 "/></g></g></g><g fill="#000000" fill-opacity="1"><g transform="translate(176.265685, 38.308183)"><g><path d="M 35.1875 -32.640625 L 35.1875 0 L 27.640625 0 L 27.640625 -19.5625 L 22.0625 -6.25 L 15.515625 -6.25 L 10.046875 -19.5625 L 10.046875 0 L 2.5 0 L 2.5 -32.640625 L 12.328125 -32.640625 L 18.9375 -16.1875 L 25.71875 -32.640625 Z M 35.1875 -32.640625 "/></g></g></g><g fill="#000000" fill-opacity="1"><g transform="translate(215.097672, 38.308183)"><g/></g></g><g fill="#000000" fill-opacity="1"><g transform="translate(223.946947, 38.308183)"><g><path d="M 26.484375 -32.640625 L 26.484375 -25.34375 L 17.59375 -25.34375 L 17.59375 0 L 9.53125 0 L 9.53125 -25.34375 L 0.625 -25.34375 L 0.625 -32.640625 Z M 26.484375 -32.640625 "/></g></g></g><g fill="#000000" fill-opacity="1"><g transform="translate(252.212104, 38.308183)"><g><path d="M 24.984375 -7.546875 L 24.984375 0 L 2.5 0 L 2.5 -32.640625 L 24.515625 -32.640625 L 24.515625 -25.34375 L 10.5625 -25.34375 L 10.5625 -19.9375 L 22.59375 -19.9375 L 22.59375 -13.171875 L 10.5625 -13.171875 L 10.5625 -7.546875 Z M 24.984375 -7.546875 "/></g></g></g><g fill="#000000" fill-opacity="1"><g transform="translate(279.644408, 38.308183)"><g><path d="M 16.65625 -7.03125 C 18.039062 -7.03125 19.546875 -7.175781 21.171875 -7.46875 C 22.804688 -7.757812 24.269531 -8.148438 25.5625 -8.640625 L 25.5625 -1.515625 C 23.644531 -0.742188 21.921875 -0.210938 20.390625 0.078125 C 18.867188 0.367188 17.273438 0.515625 15.609375 0.515625 C 12.597656 0.515625 10.1875 0.171875 8.375 -0.515625 C 6.570312 -1.210938 5.132812 -2.320312 4.0625 -3.84375 C 3.15625 -5.164062 2.484375 -6.847656 2.046875 -8.890625 C 1.617188 -10.941406 1.40625 -13.425781 1.40625 -16.34375 C 1.40625 -22.175781 2.660156 -26.4375 5.171875 -29.125 C 7.691406 -31.8125 11.691406 -33.15625 17.171875 -33.15625 C 18.765625 -33.15625 20.1875 -33.117188 21.4375 -33.046875 C 22.6875 -32.984375 23.816406 -32.863281 24.828125 -32.6875 L 24.828125 -25.65625 C 23.679688 -25.726562 22.488281 -25.78125 21.25 -25.8125 C 20.019531 -25.851562 18.660156 -25.875 17.171875 -25.875 C 15.265625 -25.875 13.847656 -25.691406 12.921875 -25.328125 C 12.003906 -24.960938 11.320312 -24.328125 10.875 -23.421875 C 10.457031 -22.722656 10.160156 -21.800781 9.984375 -20.65625 C 9.816406 -19.507812 9.734375 -18.070312 9.734375 -16.34375 C 9.734375 -14.707031 9.8125 -13.34375 9.96875 -12.25 C 10.125 -11.164062 10.375 -10.257812 10.71875 -9.53125 C 11.164062 -8.625 11.820312 -7.976562 12.6875 -7.59375 C 13.5625 -7.21875 14.882812 -7.03125 16.65625 -7.03125 Z M 16.65625 -7.03125 "/></g></g></g><g fill="#000000" fill-opacity="1"><g transform="translate(307.232884, 38.308183)"><g><path d="M 10.5625 0 L 2.5 0 L 2.5 -32.640625 L 10.5625 -32.640625 L 10.5625 -20.1875 L 22.015625 -20.1875 L 22.015625 -32.640625 L 30.078125 -32.640625 L 30.078125 0 L 22.015625 0 L 22.015625 -12.90625 L 10.5625 -12.90625 Z M 10.5625 0 "/></g></g></g><g fill="#000000" fill-opacity="1"><g transform="translate(64.387932, 67.802985)"><g><path d="M 5.34375 0.25 C 4.539062 0.25 3.84375 0.144531 3.25 -0.0625 C 2.65625 -0.28125 2.164062 -0.566406 1.78125 -0.921875 C 1.40625 -1.273438 1.125 -1.671875 0.9375 -2.109375 C 0.75 -2.554688 0.65625 -3.003906 0.65625 -3.453125 L 2.21875 -3.453125 C 2.21875 -3.046875 2.335938 -2.660156 2.578125 -2.296875 C 2.828125 -1.929688 3.1875 -1.632812 3.65625 -1.40625 C 4.125 -1.1875 4.6875 -1.078125 5.34375 -1.078125 C 6.351562 -1.078125 7.128906 -1.265625 7.671875 -1.640625 C 8.222656 -2.015625 8.5 -2.566406 8.5 -3.296875 C 8.5 -3.765625 8.363281 -4.140625 8.09375 -4.421875 C 7.820312 -4.710938 7.453125 -4.9375 6.984375 -5.09375 C 6.515625 -5.257812 5.984375 -5.390625 5.390625 -5.484375 C 4.984375 -5.546875 4.570312 -5.628906 4.15625 -5.734375 C 3.738281 -5.835938 3.335938 -5.96875 2.953125 -6.125 C 2.578125 -6.289062 2.238281 -6.492188 1.9375 -6.734375 C 1.644531 -6.984375 1.410156 -7.285156 1.234375 -7.640625 C 1.054688 -7.992188 0.96875 -8.410156 0.96875 -8.890625 C 0.96875 -9.328125 1.046875 -9.742188 1.203125 -10.140625 C 1.367188 -10.546875 1.625 -10.898438 1.96875 -11.203125 C 2.3125 -11.515625 2.753906 -11.757812 3.296875 -11.9375 C 3.847656 -12.113281 4.515625 -12.203125 5.296875 -12.203125 C 6.234375 -12.203125 7.019531 -12.054688 7.65625 -11.765625 C 8.289062 -11.484375 8.769531 -11.085938 9.09375 -10.578125 C 9.425781 -10.066406 9.59375 -9.476562 9.59375 -8.8125 L 8.03125 -8.8125 C 8.03125 -9.207031 7.925781 -9.554688 7.71875 -9.859375 C 7.507812 -10.160156 7.195312 -10.398438 6.78125 -10.578125 C 6.375 -10.753906 5.875 -10.84375 5.28125 -10.84375 C 4.738281 -10.84375 4.285156 -10.785156 3.921875 -10.671875 C 3.566406 -10.554688 3.285156 -10.40625 3.078125 -10.21875 C 2.878906 -10.039062 2.734375 -9.832031 2.640625 -9.59375 C 2.554688 -9.363281 2.515625 -9.125 2.515625 -8.875 C 2.515625 -8.457031 2.644531 -8.113281 2.90625 -7.84375 C 3.164062 -7.570312 3.546875 -7.351562 4.046875 -7.1875 C 4.546875 -7.03125 5.148438 -6.898438 5.859375 -6.796875 C 6.265625 -6.734375 6.664062 -6.648438 7.0625 -6.546875 C 7.46875 -6.441406 7.847656 -6.304688 8.203125 -6.140625 C 8.566406 -5.972656 8.890625 -5.757812 9.171875 -5.5 C 9.453125 -5.25 9.671875 -4.941406 9.828125 -4.578125 C 9.992188 -4.222656 10.078125 -3.796875 10.078125 -3.296875 C 10.078125 -2.554688 9.882812 -1.921875 9.5 -1.390625 C 9.125 -0.859375 8.582031 -0.453125 7.875 -0.171875 C 7.164062 0.109375 6.320312 0.25 5.34375 0.25 Z M 5.34375 0.25 "/></g></g></g><g fill="#000000" fill-opacity="1"><g transform="translate(81.149032, 67.802985)"><g><path d="M 9.640625 0 L 1.625 0 L 1.625 -11.9375 L 9.5625 -11.9375 L 9.5625 -10.53125 L 3.171875 -10.53125 L 3.171875 -6.75 L 8.734375 -6.75 L 8.734375 -5.40625 L 3.171875 -5.40625 L 3.171875 -1.40625 L 9.640625 -1.40625 Z M 9.640625 0 "/></g></g></g><g fill="#000000" fill-opacity="1"><g transform="translate(97.497671, 67.802985)"><g><path d="M 3.171875 0 L 1.625 0 L 1.625 -11.9375 L 6.703125 -11.9375 C 7.273438 -11.9375 7.800781 -11.847656 8.28125 -11.671875 C 8.769531 -11.492188 9.191406 -11.238281 9.546875 -10.90625 C 9.898438 -10.582031 10.171875 -10.1875 10.359375 -9.71875 C 10.554688 -9.257812 10.65625 -8.75 10.65625 -8.1875 C 10.65625 -7.601562 10.546875 -7.078125 10.328125 -6.609375 C 10.117188 -6.140625 9.816406 -5.742188 9.421875 -5.421875 C 9.023438 -5.097656 8.566406 -4.863281 8.046875 -4.71875 L 10.921875 0 L 9.125 0 L 6.484375 -4.5 C 6.421875 -4.488281 6.351562 -4.484375 6.28125 -4.484375 C 6.21875 -4.484375 6.15625 -4.484375 6.09375 -4.484375 L 3.171875 -4.484375 Z M 3.171875 -10.546875 L 3.171875 -5.8125 L 6.671875 -5.8125 C 7.140625 -5.820312 7.554688 -5.921875 7.921875 -6.109375 C 8.285156 -6.304688 8.570312 -6.582031 8.78125 -6.9375 C 9 -7.300781 9.109375 -7.71875 9.109375 -8.1875 C 9.109375 -8.644531 9 -9.050781 8.78125 -9.40625 C 8.5625 -9.757812 8.265625 -10.035156 7.890625 -10.234375 C 7.523438 -10.441406 7.109375 -10.546875 6.640625 -10.546875 Z M 3.171875 -10.546875 "/></g></g></g><g fill="#000000" fill-opacity="1"><g transform="translate(115.039784, 67.802985)"><g><path d="M 6.703125 0 L 5.265625 0 L 0.171875 -11.9375 L 1.828125 -11.9375 L 5.96875 -2.015625 L 6 -2.03125 L 10.125 -11.9375 L 11.78125 -11.9375 Z M 6.703125 0 "/></g></g></g><g fill="#000000" fill-opacity="1"><g transform="translate(133.073328, 67.802985)"><g><path d="M 3.171875 0 L 1.625 0 L 1.625 -11.9375 L 3.171875 -11.9375 Z M 3.171875 0 "/></g></g></g><g fill="#000000" fill-opacity="1"><g transform="translate(143.954814, 67.802985)"><g><path d="M 6.9375 0.234375 C 6.238281 0.234375 5.570312 0.128906 4.9375 -0.078125 C 4.3125 -0.285156 3.738281 -0.578125 3.21875 -0.953125 C 2.707031 -1.335938 2.265625 -1.785156 1.890625 -2.296875 C 1.515625 -2.816406 1.222656 -3.382812 1.015625 -4 C 0.816406 -4.625 0.71875 -5.285156 0.71875 -5.984375 C 0.71875 -6.679688 0.816406 -7.335938 1.015625 -7.953125 C 1.222656 -8.578125 1.515625 -9.148438 1.890625 -9.671875 C 2.265625 -10.191406 2.707031 -10.640625 3.21875 -11.015625 C 3.738281 -11.390625 4.3125 -11.679688 4.9375 -11.890625 C 5.570312 -12.097656 6.238281 -12.203125 6.9375 -12.203125 C 7.570312 -12.203125 8.1875 -12.113281 8.78125 -11.9375 C 9.382812 -11.757812 9.941406 -11.488281 10.453125 -11.125 C 10.960938 -10.769531 11.398438 -10.320312 11.765625 -9.78125 C 12.128906 -9.238281 12.382812 -8.609375 12.53125 -7.890625 L 10.953125 -7.890625 C 10.765625 -8.535156 10.472656 -9.070312 10.078125 -9.5 C 9.691406 -9.925781 9.222656 -10.242188 8.671875 -10.453125 C 8.128906 -10.671875 7.535156 -10.78125 6.890625 -10.78125 C 6.242188 -10.78125 5.640625 -10.660156 5.078125 -10.421875 C 4.515625 -10.191406 4.023438 -9.859375 3.609375 -9.421875 C 3.191406 -8.992188 2.863281 -8.488281 2.625 -7.90625 C 2.382812 -7.320312 2.265625 -6.679688 2.265625 -5.984375 C 2.265625 -5.273438 2.382812 -4.628906 2.625 -4.046875 C 2.863281 -3.460938 3.191406 -2.957031 3.609375 -2.53125 C 4.023438 -2.101562 4.515625 -1.773438 5.078125 -1.546875 C 5.640625 -1.316406 6.242188 -1.203125 6.890625 -1.203125 C 7.535156 -1.203125 8.128906 -1.304688 8.671875 -1.515625 C 9.222656 -1.734375 9.691406 -2.054688 10.078125 -2.484375 C 10.472656 -2.910156 10.757812 -3.441406 10.9375 -4.078125 L 12.53125 -4.078125 C 12.382812 -3.359375 12.128906 -2.726562 11.765625 -2.1875 C 11.410156 -1.644531 10.976562 -1.191406 10.46875 -0.828125 C 9.957031 -0.472656 9.398438 -0.207031 8.796875 -0.03125 C 8.191406 0.144531 7.570312 0.234375 6.9375 0.234375 Z M 6.9375 0.234375 "/></g></g></g><g fill="#000000" fill-opacity="1"><g transform="translate(163.278372, 67.802985)"><g><path d="M 9.640625 0 L 1.625 0 L 1.625 -11.9375 L 9.5625 -11.9375 L 9.5625 -10.53125 L 3.171875 -10.53125 L 3.171875 -6.75 L 8.734375 -6.75 L 8.734375 -5.40625 L 3.171875 -5.40625 L 3.171875 -1.40625 L 9.640625 -1.40625 Z M 9.640625 0 "/></g></g></g><g fill="#000000" fill-opacity="1"><g transform="translate(179.627011, 67.802985)"><g/></g></g><g fill="#000000" fill-opacity="1"><g transform="translate(190.148691, 67.802985)"><g><path d="M 11.796875 0 L 9.96875 0 L 8.765625 -1.296875 C 8.222656 -0.828125 7.625 -0.453125 6.96875 -0.171875 C 6.3125 0.0976562 5.640625 0.234375 4.953125 0.234375 C 4.367188 0.234375 3.828125 0.148438 3.328125 -0.015625 C 2.835938 -0.179688 2.40625 -0.414062 2.03125 -0.71875 C 1.664062 -1.019531 1.378906 -1.378906 1.171875 -1.796875 C 0.960938 -2.210938 0.859375 -2.671875 0.859375 -3.171875 C 0.859375 -3.640625 0.941406 -4.050781 1.109375 -4.40625 C 1.285156 -4.769531 1.519531 -5.09375 1.8125 -5.375 C 2.101562 -5.65625 2.421875 -5.90625 2.765625 -6.125 C 3.109375 -6.351562 3.453125 -6.5625 3.796875 -6.75 C 3.566406 -6.945312 3.335938 -7.1875 3.109375 -7.46875 C 2.878906 -7.757812 2.6875 -8.078125 2.53125 -8.421875 C 2.375 -8.765625 2.296875 -9.113281 2.296875 -9.46875 C 2.296875 -9.988281 2.425781 -10.457031 2.6875 -10.875 C 2.957031 -11.289062 3.332031 -11.617188 3.8125 -11.859375 C 4.289062 -12.097656 4.851562 -12.210938 5.5 -12.203125 C 6.125 -12.203125 6.664062 -12.09375 7.125 -11.875 C 7.59375 -11.664062 7.957031 -11.363281 8.21875 -10.96875 C 8.476562 -10.570312 8.609375 -10.101562 8.609375 -9.5625 C 8.609375 -9.1875 8.535156 -8.84375 8.390625 -8.53125 C 8.242188 -8.21875 8.050781 -7.9375 7.8125 -7.6875 C 7.570312 -7.445312 7.289062 -7.226562 6.96875 -7.03125 C 6.65625 -6.832031 6.332031 -6.644531 6 -6.46875 L 8.9375 -3.234375 C 9.21875 -3.597656 9.445312 -3.992188 9.625 -4.421875 C 9.800781 -4.847656 9.921875 -5.296875 9.984375 -5.765625 L 11.390625 -5.765625 C 11.328125 -5.097656 11.15625 -4.460938 10.875 -3.859375 C 10.601562 -3.253906 10.253906 -2.703125 9.828125 -2.203125 C 10.160156 -1.835938 10.488281 -1.46875 10.8125 -1.09375 C 11.144531 -0.726562 11.472656 -0.363281 11.796875 0 Z M 4.984375 -7.328125 C 5.191406 -7.421875 5.414062 -7.53125 5.65625 -7.65625 C 5.90625 -7.78125 6.140625 -7.925781 6.359375 -8.09375 C 6.578125 -8.269531 6.753906 -8.472656 6.890625 -8.703125 C 7.023438 -8.941406 7.09375 -9.21875 7.09375 -9.53125 C 7.09375 -9.957031 6.953125 -10.304688 6.671875 -10.578125 C 6.390625 -10.847656 6.015625 -10.984375 5.546875 -10.984375 C 5.171875 -10.984375 4.851562 -10.90625 4.59375 -10.75 C 4.332031 -10.601562 4.132812 -10.40625 4 -10.15625 C 3.875 -9.90625 3.8125 -9.632812 3.8125 -9.34375 C 3.8125 -9.082031 3.875 -8.832031 4 -8.59375 C 4.125 -8.351562 4.273438 -8.125 4.453125 -7.90625 C 4.628906 -7.695312 4.804688 -7.503906 4.984375 -7.328125 Z M 4.90625 -1.078125 C 5.46875 -1.078125 6 -1.179688 6.5 -1.390625 C 7.007812 -1.609375 7.472656 -1.90625 7.890625 -2.28125 C 7.359375 -2.875 6.820312 -3.460938 6.28125 -4.046875 C 5.75 -4.640625 5.210938 -5.234375 4.671875 -5.828125 C 4.421875 -5.691406 4.160156 -5.539062 3.890625 -5.375 C 3.617188 -5.21875 3.367188 -5.035156 3.140625 -4.828125 C 2.910156 -4.628906 2.722656 -4.394531 2.578125 -4.125 C 2.441406 -3.863281 2.375 -3.5625 2.375 -3.21875 C 2.375 -2.78125 2.484375 -2.398438 2.703125 -2.078125 C 2.929688 -1.753906 3.238281 -1.503906 3.625 -1.328125 C 4.007812 -1.160156 4.4375 -1.078125 4.90625 -1.078125 Z M 4.90625 -1.078125 "/></g></g></g><g fill="#000000" fill-opacity="1"><g transform="translate(219.520049, 67.802985)"><g><path d="M 3.171875 0 L 1.625 0 L 1.625 -11.9375 L 6.703125 -11.9375 C 7.273438 -11.9375 7.800781 -11.847656 8.28125 -11.671875 C 8.769531 -11.492188 9.191406 -11.238281 9.546875 -10.90625 C 9.898438 -10.582031 10.171875 -10.1875 10.359375 -9.71875 C 10.554688 -9.257812 10.65625 -8.75 10.65625 -8.1875 C 10.65625 -7.601562 10.546875 -7.078125 10.328125 -6.609375 C 10.117188 -6.140625 9.816406 -5.742188 9.421875 -5.421875 C 9.023438 -5.097656 8.566406 -4.863281 8.046875 -4.71875 L 10.921875 0 L 9.125 0 L 6.484375 -4.5 C 6.421875 -4.488281 6.351562 -4.484375 6.28125 -4.484375 C 6.21875 -4.484375 6.15625 -4.484375 6.09375 -4.484375 L 3.171875 -4.484375 Z M 3.171875 -10.546875 L 3.171875 -5.8125 L 6.671875 -5.8125 C 7.140625 -5.820312 7.554688 -5.921875 7.921875 -6.109375 C 8.285156 -6.304688 8.570312 -6.582031 8.78125 -6.9375 C 9 -7.300781 9.109375 -7.71875 9.109375 -8.1875 C 9.109375 -8.644531 9 -9.050781 8.78125 -9.40625 C 8.5625 -9.757812 8.265625 -10.035156 7.890625 -10.234375 C 7.523438 -10.441406 7.109375 -10.546875 6.640625 -10.546875 Z M 3.171875 -10.546875 "/></g></g></g><g fill="#000000" fill-opacity="1"><g transform="translate(237.062172, 67.802985)"><g><path d="M 9.640625 0 L 1.625 0 L 1.625 -11.9375 L 9.5625 -11.9375 L 9.5625 -10.53125 L 3.171875 -10.53125 L 3.171875 -6.75 L 8.734375 -6.75 L 8.734375 -5.40625 L 3.171875 -5.40625 L 3.171875 -1.40625 L 9.640625 -1.40625 Z M 9.640625 0 "/></g></g></g><g fill="#000000" fill-opacity="1"><g transform="translate(253.410801, 67.802985)"><g><path d="M 3.171875 0 L 1.625 0 L 1.625 -11.9375 L 6.53125 -11.9375 C 7.101562 -11.9375 7.628906 -11.835938 8.109375 -11.640625 C 8.597656 -11.453125 9.019531 -11.179688 9.375 -10.828125 C 9.738281 -10.484375 10.015625 -10.070312 10.203125 -9.59375 C 10.398438 -9.125 10.5 -8.609375 10.5 -8.046875 C 10.5 -7.460938 10.398438 -6.925781 10.203125 -6.4375 C 10.015625 -5.957031 9.742188 -5.539062 9.390625 -5.1875 C 9.035156 -4.832031 8.617188 -4.554688 8.140625 -4.359375 C 7.660156 -4.171875 7.132812 -4.078125 6.5625 -4.078125 L 3.171875 -4.078125 Z M 3.171875 -10.546875 L 3.171875 -5.484375 L 6.484375 -5.484375 C 6.953125 -5.484375 7.367188 -5.59375 7.734375 -5.8125 C 8.109375 -6.039062 8.398438 -6.347656 8.609375 -6.734375 C 8.828125 -7.117188 8.9375 -7.550781 8.9375 -8.03125 C 8.9375 -8.375 8.875 -8.695312 8.75 -9 C 8.632812 -9.300781 8.460938 -9.566406 8.234375 -9.796875 C 8.003906 -10.035156 7.738281 -10.21875 7.4375 -10.34375 C 7.144531 -10.476562 6.820312 -10.546875 6.46875 -10.546875 Z M 3.171875 -10.546875 "/></g></g></g><g fill="#000000" fill-opacity="1"><g transform="translate(270.338636, 67.802985)"><g><path d="M 11.71875 0 L 10.0625 0 L 8.9375 -2.703125 L 2.890625 -2.703125 L 1.765625 0 L 0.109375 0 L 5.171875 -11.9375 L 6.671875 -11.9375 Z M 5.859375 -9.75 L 3.453125 -4.015625 L 8.375 -4.015625 L 5.96875 -9.75 L 5.921875 -9.953125 L 5.90625 -9.953125 Z M 5.859375 -9.75 "/></g></g></g><g fill="#000000" fill-opacity="1"><g transform="translate(288.240547, 67.802985)"><g><path d="M 3.171875 0 L 1.625 0 L 1.625 -11.9375 L 3.171875 -11.9375 Z M 3.171875 0 "/></g></g></g><g fill="#000000" fill-opacity="1"><g transform="translate(299.122023, 67.802985)"><g><path d="M 3.171875 0 L 1.625 0 L 1.625 -11.9375 L 6.703125 -11.9375 C 7.273438 -11.9375 7.800781 -11.847656 8.28125 -11.671875 C 8.769531 -11.492188 9.191406 -11.238281 9.546875 -10.90625 C 9.898438 -10.582031 10.171875 -10.1875 10.359375 -9.71875 C 10.554688 -9.257812 10.65625 -8.75 10.65625 -8.1875 C 10.65625 -7.601562 10.546875 -7.078125 10.328125 -6.609375 C 10.117188 -6.140625 9.816406 -5.742188 9.421875 -5.421875 C 9.023438 -5.097656 8.566406 -4.863281 8.046875 -4.71875 L 10.921875 0 L 9.125 0 L 6.484375 -4.5 C 6.421875 -4.488281 6.351562 -4.484375 6.28125 -4.484375 C 6.21875 -4.484375 6.15625 -4.484375 6.09375 -4.484375 L 3.171875 -4.484375 Z M 3.171875 -10.546875 L 3.171875 -5.8125 L 6.671875 -5.8125 C 7.140625 -5.820312 7.554688 -5.921875 7.921875 -6.109375 C 8.285156 -6.304688 8.570312 -6.582031 8.78125 -6.9375 C 9 -7.300781 9.109375 -7.71875 9.109375 -8.1875 C 9.109375 -8.644531 9 -9.050781 8.78125 -9.40625 C 8.5625 -9.757812 8.265625 -10.035156 7.890625 -10.234375 C 7.523438 -10.441406 7.109375 -10.546875 6.640625 -10.546875 Z M 3.171875 -10.546875 "/></g></g></g></svg>