<svg xmlns="http://www.w3.org/2000/svg" xmlns:xlink="http://www.w3.org/1999/xlink" width="100" zoomAndPan="magnify" viewBox="0 0 75 74.999997" height="100" preserveAspectRatio="xMidYMid meet" version="1.0"><defs><g/></defs><g fill="#000000" fill-opacity="1"><g transform="translate(7.346375, 38.733901)"><g><path d="M 2.9375 -2.40625 L 1.640625 -2.71875 C 1.117188 -2.84375 0.757812 -3.03125 0.5625 -3.28125 C 0.375 -3.539062 0.28125 -3.90625 0.28125 -4.375 C 0.28125 -5.125 0.476562 -5.675781 0.875 -6.03125 C 1.269531 -6.382812 1.882812 -6.5625 2.71875 -6.5625 C 3.0625 -6.5625 3.363281 -6.546875 3.625 -6.515625 C 3.894531 -6.492188 4.144531 -6.445312 4.375 -6.375 L 4.375 -4.9375 C 3.851562 -5.03125 3.492188 -5.082031 3.296875 -5.09375 C 3.097656 -5.113281 2.894531 -5.125 2.6875 -5.125 C 2.394531 -5.125 2.179688 -5.070312 2.046875 -4.96875 C 1.921875 -4.875 1.859375 -4.710938 1.859375 -4.484375 C 1.859375 -4.378906 1.878906 -4.296875 1.921875 -4.234375 C 1.960938 -4.179688 2.039062 -4.140625 2.15625 -4.109375 L 3.390625 -3.8125 C 3.753906 -3.738281 4.015625 -3.660156 4.171875 -3.578125 C 4.328125 -3.492188 4.453125 -3.394531 4.546875 -3.28125 C 4.660156 -3.144531 4.742188 -2.972656 4.796875 -2.765625 C 4.847656 -2.566406 4.875 -2.316406 4.875 -2.015625 C 4.875 -1.265625 4.671875 -0.722656 4.265625 -0.390625 C 3.867188 -0.0546875 3.253906 0.109375 2.421875 0.109375 C 1.992188 0.109375 1.585938 0.0820312 1.203125 0.03125 C 0.816406 -0.0195312 0.519531 -0.0859375 0.3125 -0.171875 L 0.3125 -1.671875 C 0.582031 -1.585938 0.90625 -1.519531 1.28125 -1.46875 C 1.664062 -1.414062 2.046875 -1.390625 2.421875 -1.390625 C 2.722656 -1.390625 2.929688 -1.425781 3.046875 -1.5 C 3.160156 -1.570312 3.21875 -1.722656 3.21875 -1.953125 C 3.21875 -2.097656 3.195312 -2.203125 3.15625 -2.265625 C 3.125 -2.335938 3.050781 -2.382812 2.9375 -2.40625 Z M 2.9375 -2.40625 "/></g></g></g><g fill="#000000" fill-opacity="1"><g transform="translate(12.610962, 38.733901)"><g><path d="M 4.5 -6.453125 L 6.140625 -6.453125 L 3.890625 -2.34375 L 3.890625 0 L 2.296875 0 L 2.296875 -2.34375 L -0.015625 -6.453125 L 1.796875 -6.453125 L 3.09375 -3.765625 Z M 4.5 -6.453125 "/></g></g></g><g fill="#000000" fill-opacity="1"><g transform="translate(18.988214, 38.733901)"><g><path d="M 2.9375 -2.40625 L 1.640625 -2.71875 C 1.117188 -2.84375 0.757812 -3.03125 0.5625 -3.28125 C 0.375 -3.539062 0.28125 -3.90625 0.28125 -4.375 C 0.28125 -5.125 0.476562 -5.675781 0.875 -6.03125 C 1.269531 -6.382812 1.882812 -6.5625 2.71875 -6.5625 C 3.0625 -6.5625 3.363281 -6.546875 3.625 -6.515625 C 3.894531 -6.492188 4.144531 -6.445312 4.375 -6.375 L 4.375 -4.9375 C 3.851562 -5.03125 3.492188 -5.082031 3.296875 -5.09375 C 3.097656 -5.113281 2.894531 -5.125 2.6875 -5.125 C 2.394531 -5.125 2.179688 -5.070312 2.046875 -4.96875 C 1.921875 -4.875 1.859375 -4.710938 1.859375 -4.484375 C 1.859375 -4.378906 1.878906 -4.296875 1.921875 -4.234375 C 1.960938 -4.179688 2.039062 -4.140625 2.15625 -4.109375 L 3.390625 -3.8125 C 3.753906 -3.738281 4.015625 -3.660156 4.171875 -3.578125 C 4.328125 -3.492188 4.453125 -3.394531 4.546875 -3.28125 C 4.660156 -3.144531 4.742188 -2.972656 4.796875 -2.765625 C 4.847656 -2.566406 4.875 -2.316406 4.875 -2.015625 C 4.875 -1.265625 4.671875 -0.722656 4.265625 -0.390625 C 3.867188 -0.0546875 3.253906 0.109375 2.421875 0.109375 C 1.992188 0.109375 1.585938 0.0820312 1.203125 0.03125 C 0.816406 -0.0195312 0.519531 -0.0859375 0.3125 -0.171875 L 0.3125 -1.671875 C 0.582031 -1.585938 0.90625 -1.519531 1.28125 -1.46875 C 1.664062 -1.414062 2.046875 -1.390625 2.421875 -1.390625 C 2.722656 -1.390625 2.929688 -1.425781 3.046875 -1.5 C 3.160156 -1.570312 3.21875 -1.722656 3.21875 -1.953125 C 3.21875 -2.097656 3.195312 -2.203125 3.15625 -2.265625 C 3.125 -2.335938 3.050781 -2.382812 2.9375 -2.40625 Z M 2.9375 -2.40625 "/></g></g></g><g fill="#000000" fill-opacity="1"><g transform="translate(24.2528, 38.733901)"><g><path d="M 5.234375 -6.453125 L 5.234375 -5.015625 L 3.484375 -5.015625 L 3.484375 0 L 1.890625 0 L 1.890625 -5.015625 L 0.125 -5.015625 L 0.125 -6.453125 Z M 5.234375 -6.453125 "/></g></g></g><g fill="#000000" fill-opacity="1"><g transform="translate(29.847066, 38.733901)"><g><path d="M 4.9375 -1.5 L 4.9375 0 L 0.5 0 L 0.5 -6.453125 L 4.84375 -6.453125 L 4.84375 -5.015625 L 2.09375 -5.015625 L 2.09375 -3.9375 L 4.46875 -3.9375 L 4.46875 -2.609375 L 2.09375 -2.609375 L 2.09375 -1.5 Z M 4.9375 -1.5 "/></g></g></g><g fill="#000000" fill-opacity="1"><g transform="translate(35.276492, 38.733901)"><g><path d="M 6.953125 -6.453125 L 6.953125 0 L 5.46875 0 L 5.46875 -3.875 L 4.359375 -1.234375 L 3.0625 -1.234375 L 1.984375 -3.875 L 1.984375 0 L 0.5 0 L 0.5 -6.453125 L 2.4375 -6.453125 L 3.75 -3.203125 L 5.09375 -6.453125 Z M 6.953125 -6.453125 "/></g></g></g><g fill="#000000" fill-opacity="1"><g transform="translate(42.962153, 38.733901)"><g/></g></g><g fill="#000000" fill-opacity="1"><g transform="translate(44.71361, 38.733901)"><g><path d="M 5.234375 -6.453125 L 5.234375 -5.015625 L 3.484375 -5.015625 L 3.484375 0 L 1.890625 0 L 1.890625 -5.015625 L 0.125 -5.015625 L 0.125 -6.453125 Z M 5.234375 -6.453125 "/></g></g></g><g fill="#000000" fill-opacity="1"><g transform="translate(50.307875, 38.733901)"><g><path d="M 4.9375 -1.5 L 4.9375 0 L 0.5 0 L 0.5 -6.453125 L 4.84375 -6.453125 L 4.84375 -5.015625 L 2.09375 -5.015625 L 2.09375 -3.9375 L 4.46875 -3.9375 L 4.46875 -2.609375 L 2.09375 -2.609375 L 2.09375 -1.5 Z M 4.9375 -1.5 "/></g></g></g><g fill="#000000" fill-opacity="1"><g transform="translate(55.737301, 38.733901)"><g><path d="M 3.296875 -1.390625 C 3.566406 -1.390625 3.863281 -1.414062 4.1875 -1.46875 C 4.507812 -1.53125 4.800781 -1.609375 5.0625 -1.703125 L 5.0625 -0.296875 C 4.675781 -0.148438 4.332031 -0.046875 4.03125 0.015625 C 3.726562 0.078125 3.414062 0.109375 3.09375 0.109375 C 2.488281 0.109375 2.007812 0.0390625 1.65625 -0.09375 C 1.300781 -0.238281 1.015625 -0.460938 0.796875 -0.765625 C 0.617188 -1.023438 0.488281 -1.359375 0.40625 -1.765625 C 0.320312 -2.171875 0.28125 -2.660156 0.28125 -3.234375 C 0.28125 -4.390625 0.523438 -5.234375 1.015625 -5.765625 C 1.515625 -6.296875 2.304688 -6.5625 3.390625 -6.5625 C 3.710938 -6.5625 3.992188 -6.550781 4.234375 -6.53125 C 4.484375 -6.519531 4.707031 -6.5 4.90625 -6.46875 L 4.90625 -5.078125 C 4.6875 -5.085938 4.453125 -5.097656 4.203125 -5.109375 C 3.960938 -5.117188 3.691406 -5.125 3.390625 -5.125 C 3.015625 -5.125 2.734375 -5.085938 2.546875 -5.015625 C 2.367188 -4.941406 2.238281 -4.816406 2.15625 -4.640625 C 2.070312 -4.492188 2.007812 -4.304688 1.96875 -4.078125 C 1.9375 -3.859375 1.921875 -3.578125 1.921875 -3.234375 C 1.921875 -2.910156 1.9375 -2.640625 1.96875 -2.421875 C 2 -2.203125 2.050781 -2.023438 2.125 -1.890625 C 2.207031 -1.703125 2.332031 -1.570312 2.5 -1.5 C 2.675781 -1.425781 2.941406 -1.390625 3.296875 -1.390625 Z M 3.296875 -1.390625 "/></g></g></g><g fill="#000000" fill-opacity="1"><g transform="translate(61.197637, 38.733901)"><g><path d="M 2.09375 0 L 0.5 0 L 0.5 -6.453125 L 2.09375 -6.453125 L 2.09375 -4 L 4.359375 -4 L 4.359375 -6.453125 L 5.953125 -6.453125 L 5.953125 0 L 4.359375 0 L 4.359375 -2.546875 L 2.09375 -2.546875 Z M 2.09375 0 "/></g></g></g><g fill="#000000" fill-opacity="1"><g transform="translate(13.133549, 44.57154)"><g><path d="M 1.0625 0.046875 C 0.894531 0.046875 0.753906 0.0234375 0.640625 -0.015625 C 0.523438 -0.0546875 0.425781 -0.109375 0.34375 -0.171875 C 0.269531 -0.242188 0.210938 -0.320312 0.171875 -0.40625 C 0.140625 -0.5 0.125 -0.59375 0.125 -0.6875 L 0.4375 -0.6875 C 0.4375 -0.601562 0.460938 -0.523438 0.515625 -0.453125 C 0.566406 -0.378906 0.632812 -0.320312 0.71875 -0.28125 C 0.8125 -0.238281 0.925781 -0.21875 1.0625 -0.21875 C 1.257812 -0.21875 1.410156 -0.253906 1.515625 -0.328125 C 1.628906 -0.398438 1.6875 -0.507812 1.6875 -0.65625 C 1.6875 -0.75 1.65625 -0.820312 1.59375 -0.875 C 1.539062 -0.9375 1.46875 -0.984375 1.375 -1.015625 C 1.289062 -1.046875 1.1875 -1.066406 1.0625 -1.078125 C 0.988281 -1.097656 0.910156 -1.117188 0.828125 -1.140625 C 0.742188 -1.160156 0.660156 -1.1875 0.578125 -1.21875 C 0.503906 -1.25 0.4375 -1.285156 0.375 -1.328125 C 0.320312 -1.378906 0.273438 -1.441406 0.234375 -1.515625 C 0.203125 -1.585938 0.1875 -1.671875 0.1875 -1.765625 C 0.1875 -1.847656 0.203125 -1.925781 0.234375 -2 C 0.265625 -2.082031 0.316406 -2.15625 0.390625 -2.21875 C 0.460938 -2.28125 0.550781 -2.328125 0.65625 -2.359375 C 0.757812 -2.398438 0.890625 -2.421875 1.046875 -2.421875 C 1.234375 -2.421875 1.390625 -2.390625 1.515625 -2.328125 C 1.640625 -2.273438 1.734375 -2.195312 1.796875 -2.09375 C 1.867188 -1.988281 1.90625 -1.875 1.90625 -1.75 L 1.59375 -1.75 C 1.59375 -1.820312 1.570312 -1.890625 1.53125 -1.953125 C 1.488281 -2.015625 1.425781 -2.0625 1.34375 -2.09375 C 1.257812 -2.125 1.160156 -2.140625 1.046875 -2.140625 C 0.941406 -2.140625 0.851562 -2.128906 0.78125 -2.109375 C 0.707031 -2.085938 0.648438 -2.054688 0.609375 -2.015625 C 0.566406 -1.984375 0.535156 -1.941406 0.515625 -1.890625 C 0.503906 -1.847656 0.5 -1.804688 0.5 -1.765625 C 0.5 -1.679688 0.523438 -1.609375 0.578125 -1.546875 C 0.628906 -1.492188 0.703125 -1.453125 0.796875 -1.421875 C 0.898438 -1.390625 1.019531 -1.363281 1.15625 -1.34375 C 1.238281 -1.332031 1.316406 -1.316406 1.390625 -1.296875 C 1.472656 -1.273438 1.550781 -1.25 1.625 -1.21875 C 1.695312 -1.1875 1.757812 -1.144531 1.8125 -1.09375 C 1.875 -1.039062 1.921875 -0.976562 1.953125 -0.90625 C 1.984375 -0.832031 2 -0.75 2 -0.65625 C 2 -0.507812 1.957031 -0.378906 1.875 -0.265625 C 1.800781 -0.160156 1.691406 -0.0820312 1.546875 -0.03125 C 1.410156 0.0195312 1.25 0.046875 1.0625 0.046875 Z M 1.0625 0.046875 "/></g></g></g><g fill="#000000" fill-opacity="1"><g transform="translate(16.450922, 44.57154)"><g><path d="M 1.90625 0 L 0.328125 0 L 0.328125 -2.359375 L 1.890625 -2.359375 L 1.890625 -2.078125 L 0.625 -2.078125 L 0.625 -1.34375 L 1.734375 -1.34375 L 1.734375 -1.078125 L 0.625 -1.078125 L 0.625 -0.28125 L 1.90625 -0.28125 Z M 1.90625 0 "/></g></g></g><g fill="#000000" fill-opacity="1"><g transform="translate(19.68666, 44.57154)"><g><path d="M 0.625 0 L 0.328125 0 L 0.328125 -2.359375 L 1.328125 -2.359375 C 1.441406 -2.359375 1.546875 -2.34375 1.640625 -2.3125 C 1.734375 -2.28125 1.816406 -2.226562 1.890625 -2.15625 C 1.960938 -2.09375 2.015625 -2.015625 2.046875 -1.921875 C 2.085938 -1.835938 2.109375 -1.738281 2.109375 -1.625 C 2.109375 -1.507812 2.085938 -1.40625 2.046875 -1.3125 C 2.003906 -1.21875 1.941406 -1.140625 1.859375 -1.078125 C 1.785156 -1.015625 1.695312 -0.96875 1.59375 -0.9375 L 2.15625 0 L 1.8125 0 L 1.28125 -0.890625 C 1.269531 -0.890625 1.253906 -0.890625 1.234375 -0.890625 C 1.222656 -0.890625 1.210938 -0.890625 1.203125 -0.890625 L 0.625 -0.890625 Z M 0.625 -2.09375 L 0.625 -1.15625 L 1.3125 -1.15625 C 1.40625 -1.15625 1.488281 -1.171875 1.5625 -1.203125 C 1.632812 -1.242188 1.691406 -1.300781 1.734375 -1.375 C 1.773438 -1.445312 1.796875 -1.53125 1.796875 -1.625 C 1.796875 -1.707031 1.773438 -1.785156 1.734375 -1.859375 C 1.691406 -1.929688 1.632812 -1.988281 1.5625 -2.03125 C 1.488281 -2.070312 1.40625 -2.09375 1.3125 -2.09375 Z M 0.625 -2.09375 "/></g></g></g><g fill="#000000" fill-opacity="1"><g transform="translate(23.158611, 44.57154)"><g><path d="M 1.328125 0 L 1.046875 0 L 0.03125 -2.359375 L 0.359375 -2.359375 L 1.1875 -0.390625 L 1.1875 -0.40625 L 2 -2.359375 L 2.328125 -2.359375 Z M 1.328125 0 "/></g></g></g><g fill="#000000" fill-opacity="1"><g transform="translate(26.727827, 44.57154)"><g><path d="M 0.625 0 L 0.328125 0 L 0.328125 -2.359375 L 0.625 -2.359375 Z M 0.625 0 "/></g></g></g><g fill="#000000" fill-opacity="1"><g transform="translate(28.8815, 44.57154)"><g><path d="M 1.375 0.046875 C 1.238281 0.046875 1.109375 0.0234375 0.984375 -0.015625 C 0.859375 -0.0546875 0.742188 -0.113281 0.640625 -0.1875 C 0.535156 -0.257812 0.445312 -0.347656 0.375 -0.453125 C 0.300781 -0.554688 0.242188 -0.671875 0.203125 -0.796875 C 0.160156 -0.921875 0.140625 -1.050781 0.140625 -1.1875 C 0.140625 -1.320312 0.160156 -1.453125 0.203125 -1.578125 C 0.242188 -1.703125 0.300781 -1.8125 0.375 -1.90625 C 0.445312 -2.007812 0.535156 -2.097656 0.640625 -2.171875 C 0.742188 -2.253906 0.859375 -2.316406 0.984375 -2.359375 C 1.109375 -2.398438 1.238281 -2.421875 1.375 -2.421875 C 1.5 -2.421875 1.617188 -2.398438 1.734375 -2.359375 C 1.859375 -2.328125 1.96875 -2.273438 2.0625 -2.203125 C 2.164062 -2.128906 2.253906 -2.039062 2.328125 -1.9375 C 2.398438 -1.832031 2.453125 -1.707031 2.484375 -1.5625 L 2.171875 -1.5625 C 2.128906 -1.6875 2.066406 -1.789062 1.984375 -1.875 C 1.910156 -1.957031 1.820312 -2.019531 1.71875 -2.0625 C 1.613281 -2.113281 1.492188 -2.140625 1.359375 -2.140625 C 1.234375 -2.140625 1.113281 -2.113281 1 -2.0625 C 0.894531 -2.019531 0.800781 -1.953125 0.71875 -1.859375 C 0.632812 -1.773438 0.566406 -1.675781 0.515625 -1.5625 C 0.472656 -1.445312 0.453125 -1.320312 0.453125 -1.1875 C 0.453125 -1.039062 0.472656 -0.910156 0.515625 -0.796875 C 0.566406 -0.679688 0.632812 -0.582031 0.71875 -0.5 C 0.800781 -0.414062 0.894531 -0.347656 1 -0.296875 C 1.113281 -0.253906 1.234375 -0.234375 1.359375 -0.234375 C 1.492188 -0.234375 1.613281 -0.253906 1.71875 -0.296875 C 1.820312 -0.335938 1.910156 -0.398438 1.984375 -0.484375 C 2.066406 -0.578125 2.128906 -0.6875 2.171875 -0.8125 L 2.484375 -0.8125 C 2.453125 -0.664062 2.398438 -0.535156 2.328125 -0.421875 C 2.253906 -0.316406 2.164062 -0.226562 2.0625 -0.15625 C 1.96875 -0.09375 1.859375 -0.0390625 1.734375 0 C 1.617188 0.03125 1.5 0.046875 1.375 0.046875 Z M 1.375 0.046875 "/></g></g></g><g fill="#000000" fill-opacity="1"><g transform="translate(32.706037, 44.57154)"><g><path d="M 1.90625 0 L 0.328125 0 L 0.328125 -2.359375 L 1.890625 -2.359375 L 1.890625 -2.078125 L 0.625 -2.078125 L 0.625 -1.34375 L 1.734375 -1.34375 L 1.734375 -1.078125 L 0.625 -1.078125 L 0.625 -0.28125 L 1.90625 -0.28125 Z M 1.90625 0 "/></g></g></g><g fill="#000000" fill-opacity="1"><g transform="translate(35.941775, 44.57154)"><g/></g></g><g fill="#000000" fill-opacity="1"><g transform="translate(38.024235, 44.57154)"><g><path d="M 2.34375 0 L 1.96875 0 L 1.734375 -0.25 C 1.628906 -0.15625 1.507812 -0.0820312 1.375 -0.03125 C 1.25 0.0195312 1.117188 0.046875 0.984375 0.046875 C 0.867188 0.046875 0.757812 0.03125 0.65625 0 C 0.5625 -0.03125 0.476562 -0.078125 0.40625 -0.140625 C 0.332031 -0.203125 0.273438 -0.273438 0.234375 -0.359375 C 0.191406 -0.441406 0.171875 -0.53125 0.171875 -0.625 C 0.171875 -0.71875 0.1875 -0.800781 0.21875 -0.875 C 0.25 -0.945312 0.296875 -1.007812 0.359375 -1.0625 C 0.421875 -1.113281 0.484375 -1.160156 0.546875 -1.203125 C 0.617188 -1.253906 0.6875 -1.300781 0.75 -1.34375 C 0.707031 -1.375 0.660156 -1.414062 0.609375 -1.46875 C 0.566406 -1.53125 0.53125 -1.59375 0.5 -1.65625 C 0.46875 -1.726562 0.453125 -1.800781 0.453125 -1.875 C 0.453125 -1.976562 0.476562 -2.070312 0.53125 -2.15625 C 0.582031 -2.238281 0.65625 -2.300781 0.75 -2.34375 C 0.84375 -2.394531 0.957031 -2.421875 1.09375 -2.421875 C 1.21875 -2.421875 1.320312 -2.398438 1.40625 -2.359375 C 1.5 -2.316406 1.570312 -2.253906 1.625 -2.171875 C 1.675781 -2.097656 1.703125 -2.003906 1.703125 -1.890625 C 1.703125 -1.816406 1.6875 -1.75 1.65625 -1.6875 C 1.632812 -1.625 1.597656 -1.566406 1.546875 -1.515625 C 1.492188 -1.472656 1.4375 -1.429688 1.375 -1.390625 C 1.3125 -1.347656 1.25 -1.3125 1.1875 -1.28125 L 1.765625 -0.640625 C 1.828125 -0.710938 1.875 -0.789062 1.90625 -0.875 C 1.9375 -0.957031 1.960938 -1.046875 1.984375 -1.140625 L 2.25 -1.140625 C 2.238281 -1.003906 2.207031 -0.878906 2.15625 -0.765625 C 2.101562 -0.648438 2.035156 -0.539062 1.953125 -0.4375 C 2.015625 -0.363281 2.078125 -0.289062 2.140625 -0.21875 C 2.210938 -0.144531 2.28125 -0.0703125 2.34375 0 Z M 0.984375 -1.453125 C 1.023438 -1.472656 1.066406 -1.492188 1.109375 -1.515625 C 1.160156 -1.546875 1.207031 -1.578125 1.25 -1.609375 C 1.300781 -1.640625 1.335938 -1.675781 1.359375 -1.71875 C 1.390625 -1.769531 1.40625 -1.828125 1.40625 -1.890625 C 1.40625 -1.972656 1.375 -2.039062 1.3125 -2.09375 C 1.257812 -2.144531 1.1875 -2.171875 1.09375 -2.171875 C 1.019531 -2.171875 0.957031 -2.15625 0.90625 -2.125 C 0.851562 -2.09375 0.8125 -2.050781 0.78125 -2 C 0.757812 -1.957031 0.75 -1.90625 0.75 -1.84375 C 0.75 -1.800781 0.757812 -1.753906 0.78125 -1.703125 C 0.8125 -1.648438 0.84375 -1.601562 0.875 -1.5625 C 0.914062 -1.519531 0.953125 -1.484375 0.984375 -1.453125 Z M 0.96875 -0.21875 C 1.082031 -0.21875 1.1875 -0.238281 1.28125 -0.28125 C 1.382812 -0.320312 1.476562 -0.378906 1.5625 -0.453125 C 1.457031 -0.566406 1.347656 -0.679688 1.234375 -0.796875 C 1.128906 -0.921875 1.023438 -1.039062 0.921875 -1.15625 C 0.867188 -1.125 0.816406 -1.09375 0.765625 -1.0625 C 0.710938 -1.03125 0.664062 -0.992188 0.625 -0.953125 C 0.582031 -0.910156 0.546875 -0.863281 0.515625 -0.8125 C 0.484375 -0.757812 0.46875 -0.703125 0.46875 -0.640625 C 0.46875 -0.554688 0.488281 -0.476562 0.53125 -0.40625 C 0.582031 -0.34375 0.644531 -0.296875 0.71875 -0.265625 C 0.789062 -0.234375 0.875 -0.21875 0.96875 -0.21875 Z M 0.96875 -0.21875 "/></g></g></g><g fill="#000000" fill-opacity="1"><g transform="translate(41.754981, 44.57154)"><g/></g></g><g fill="#000000" fill-opacity="1"><g transform="translate(43.837442, 44.57154)"><g><path d="M 0.625 0 L 0.328125 0 L 0.328125 -2.359375 L 1.328125 -2.359375 C 1.441406 -2.359375 1.546875 -2.34375 1.640625 -2.3125 C 1.734375 -2.28125 1.816406 -2.226562 1.890625 -2.15625 C 1.960938 -2.09375 2.015625 -2.015625 2.046875 -1.921875 C 2.085938 -1.835938 2.109375 -1.738281 2.109375 -1.625 C 2.109375 -1.507812 2.085938 -1.40625 2.046875 -1.3125 C 2.003906 -1.21875 1.941406 -1.140625 1.859375 -1.078125 C 1.785156 -1.015625 1.695312 -0.96875 1.59375 -0.9375 L 2.15625 0 L 1.8125 0 L 1.28125 -0.890625 C 1.269531 -0.890625 1.253906 -0.890625 1.234375 -0.890625 C 1.222656 -0.890625 1.210938 -0.890625 1.203125 -0.890625 L 0.625 -0.890625 Z M 0.625 -2.09375 L 0.625 -1.15625 L 1.3125 -1.15625 C 1.40625 -1.15625 1.488281 -1.171875 1.5625 -1.203125 C 1.632812 -1.242188 1.691406 -1.300781 1.734375 -1.375 C 1.773438 -1.445312 1.796875 -1.53125 1.796875 -1.625 C 1.796875 -1.707031 1.773438 -1.785156 1.734375 -1.859375 C 1.691406 -1.929688 1.632812 -1.988281 1.5625 -2.03125 C 1.488281 -2.070312 1.40625 -2.09375 1.3125 -2.09375 Z M 0.625 -2.09375 "/></g></g></g><g fill="#000000" fill-opacity="1"><g transform="translate(47.309395, 44.57154)"><g><path d="M 1.90625 0 L 0.328125 0 L 0.328125 -2.359375 L 1.890625 -2.359375 L 1.890625 -2.078125 L 0.625 -2.078125 L 0.625 -1.34375 L 1.734375 -1.34375 L 1.734375 -1.078125 L 0.625 -1.078125 L 0.625 -0.28125 L 1.90625 -0.28125 Z M 1.90625 0 "/></g></g></g><g fill="#000000" fill-opacity="1"><g transform="translate(50.545131, 44.57154)"><g><path d="M 0.625 0 L 0.328125 0 L 0.328125 -2.359375 L 1.296875 -2.359375 C 1.410156 -2.359375 1.515625 -2.335938 1.609375 -2.296875 C 1.703125 -2.265625 1.785156 -2.210938 1.859375 -2.140625 C 1.929688 -2.078125 1.984375 -2 2.015625 -1.90625 C 2.054688 -1.8125 2.078125 -1.707031 2.078125 -1.59375 C 2.078125 -1.476562 2.054688 -1.367188 2.015625 -1.265625 C 1.984375 -1.171875 1.929688 -1.085938 1.859375 -1.015625 C 1.785156 -0.953125 1.703125 -0.898438 1.609375 -0.859375 C 1.515625 -0.828125 1.410156 -0.8125 1.296875 -0.8125 L 0.625 -0.8125 Z M 0.625 -2.09375 L 0.625 -1.09375 L 1.28125 -1.09375 C 1.375 -1.09375 1.457031 -1.113281 1.53125 -1.15625 C 1.601562 -1.195312 1.660156 -1.253906 1.703125 -1.328125 C 1.742188 -1.410156 1.765625 -1.5 1.765625 -1.59375 C 1.765625 -1.65625 1.753906 -1.71875 1.734375 -1.78125 C 1.710938 -1.84375 1.675781 -1.894531 1.625 -1.9375 C 1.582031 -1.988281 1.53125 -2.023438 1.46875 -2.046875 C 1.414062 -2.078125 1.351562 -2.09375 1.28125 -2.09375 Z M 0.625 -2.09375 "/></g></g></g><g fill="#000000" fill-opacity="1"><g transform="translate(53.895503, 44.57154)"><g><path d="M 2.328125 0 L 2 0 L 1.765625 -0.53125 L 0.578125 -0.53125 L 0.34375 0 L 0.015625 0 L 1.03125 -2.359375 L 1.3125 -2.359375 Z M 1.15625 -1.9375 L 0.6875 -0.796875 L 1.65625 -0.796875 L 1.1875 -1.9375 L 1.171875 -1.96875 Z M 1.15625 -1.9375 "/></g></g></g><g fill="#000000" fill-opacity="1"><g transform="translate(57.438666, 44.57154)"><g><path d="M 0.625 0 L 0.328125 0 L 0.328125 -2.359375 L 0.625 -2.359375 Z M 0.625 0 "/></g></g></g><g fill="#000000" fill-opacity="1"><g transform="translate(59.592338, 44.57154)"><g><path d="M 0.625 0 L 0.328125 0 L 0.328125 -2.359375 L 1.328125 -2.359375 C 1.441406 -2.359375 1.546875 -2.34375 1.640625 -2.3125 C 1.734375 -2.28125 1.816406 -2.226562 1.890625 -2.15625 C 1.960938 -2.09375 2.015625 -2.015625 2.046875 -1.921875 C 2.085938 -1.835938 2.109375 -1.738281 2.109375 -1.625 C 2.109375 -1.507812 2.085938 -1.40625 2.046875 -1.3125 C 2.003906 -1.21875 1.941406 -1.140625 1.859375 -1.078125 C 1.785156 -1.015625 1.695312 -0.96875 1.59375 -0.9375 L 2.15625 0 L 1.8125 0 L 1.28125 -0.890625 C 1.269531 -0.890625 1.253906 -0.890625 1.234375 -0.890625 C 1.222656 -0.890625 1.210938 -0.890625 1.203125 -0.890625 L 0.625 -0.890625 Z M 0.625 -2.09375 L 0.625 -1.15625 L 1.3125 -1.15625 C 1.40625 -1.15625 1.488281 -1.171875 1.5625 -1.203125 C 1.632812 -1.242188 1.691406 -1.300781 1.734375 -1.375 C 1.773438 -1.445312 1.796875 -1.53125 1.796875 -1.625 C 1.796875 -1.707031 1.773438 -1.785156 1.734375 -1.859375 C 1.691406 -1.929688 1.632812 -1.988281 1.5625 -2.03125 C 1.488281 -2.070312 1.40625 -2.09375 1.3125 -2.09375 Z M 0.625 -2.09375 "/></g></g></g></svg>